<svg id="Layer_1" data-name="Layer 1" xmlns="http://www.w3.org/2000/svg" xmlns:xlink="http://www.w3.org/1999/xlink" viewBox="0 0 319.65 204.09"><defs><clipPath id="clip-path"><path d="M185.6,35.12a27.49,27.49,0,0,1,1.62,6,20,20,0,0,1,2.2-.11,21.27,21.27,0,1,1-2.28,42.4,27,27,0,0,1-1.71,6,27.47,27.47,0,1,0,4-54.64,26.72,26.72,0,0,0-3.82.3" fill="#fff"/></clipPath><clipPath id="clip-path-2"><path d="M168.7,66.82a22.11,22.11,0,0,0,1.16,3.81,22.11,22.11,0,0,1-1.16-3.81M181.18,42.7a21,21,0,0,1-3.8,14.86h0a21.66,21.66,0,0,1-3.74,4,21.27,21.27,0,0,0,3.73-4,27.49,27.49,0,0,0-7.21-4.21,27.15,27.15,0,0,0-6.1-1.62,25.18,25.18,0,0,0-8.36.06,27.7,27.7,0,0,1,1.7,6,19.39,19.39,0,0,1,4.95-.06,26.89,26.89,0,0,1,1-4,26.89,26.89,0,0,0-1,4,20.76,20.76,0,0,1,6,1.57A21,21,0,0,1,173,62.06a21,21,0,0,1-4.71,2.77h0a21.05,21.05,0,0,1-6,1.55h0a20.13,20.13,0,0,1-2.2.12,20.43,20.43,0,0,1-2.61-.18,26.91,26.91,0,0,1-1.6,6,24.58,24.58,0,0,0,8,.06A27.33,27.33,0,0,0,170,70.85h0a27,27,0,0,0,11.8-8.79,26.93,26.93,0,0,0,5.47-20.9,21.05,21.05,0,0,0-6,1.55" fill="#fff"/></clipPath><clipPath id="clip-path-3"><path d="M150.12,19.79c0,.05,0,.1,0,.15s0-.1,0-.15m6-1.72a27.5,27.5,0,0,0-6,1.59h0a27.6,27.6,0,0,0-15.55,15.52,28.16,28.16,0,0,1,3.06.65,28.16,28.16,0,0,0-3.06-.65,26.66,26.66,0,0,0-1.6,6c.19,0,.37.09.56.12-.19,0-.37-.09-.57-.12a28,28,0,0,0-.32,4,28.41,28.41,0,0,0,.22,3.35h0a27.15,27.15,0,0,0,1.47,6h0a27.24,27.24,0,0,0,4.11,7.41,27.4,27.4,0,0,0-4.24,7.77,27.5,27.5,0,0,1,5.68,1.44,27.5,27.5,0,0,0-5.68-1.44,27.68,27.68,0,0,0-1.39,6.06h0a27,27,0,0,0-.17,3,27.78,27.78,0,0,0,.4,4.5h0a27.15,27.15,0,0,0,1.7,6h0a27.62,27.62,0,0,0,15.5,15.09h0a27.41,27.41,0,0,0,6,1.57h0a27.15,27.15,0,0,0,3.85.3,27.52,27.52,0,0,0,25.35-16.9c-.67-.1-1.31-.26-2-.4.65.14,1.3.3,2,.4a27,27,0,0,0,1.71-6,21.17,21.17,0,0,1-2.11-.38c.7.14,1.39.3,2.11.38a26.82,26.82,0,0,0-5.38-21.39,27.43,27.43,0,0,1-4.38,4.5,20.72,20.72,0,0,1,3.72,15.33h0a21.06,21.06,0,0,1-1.76,6c.67.27,1.37.47,2.06.68-.69-.21-1.39-.41-2.07-.68a21.25,21.25,0,0,1-19.25,12.31,19.64,19.64,0,0,1-2.45-.16h0a20.85,20.85,0,0,1-6.11-1.66h0a21.33,21.33,0,0,1-10.76-10.62,20.78,20.78,0,0,1-1.74-6h0a20.21,20.21,0,0,1-.21-2.81c0-.45,0-.89.07-1.34h0a21.09,21.09,0,0,1,1.32-6.16h0a21.14,21.14,0,0,1,2.58-4.83,21.53,21.53,0,0,1,4.34-4.5,21.29,21.29,0,0,1-4.34-4.5h0a21.32,21.32,0,0,1-2.46-4.5h0a21.18,21.18,0,0,1-1.42-6.12h0c0-.56-.08-1.13-.08-1.7a20.31,20.31,0,0,1,.14-2.35h0a20.93,20.93,0,0,1,1.6-6.06,25.92,25.92,0,0,0-2.74-.92,25.92,25.92,0,0,1,2.74.92,21.42,21.42,0,0,1,10.95-11h0a21,21,0,0,1,6.07-1.67,23.16,23.16,0,0,1,2.51-.16,21.3,21.3,0,0,1,19.46,12.73,27.79,27.79,0,0,1,3.77-1.12,27.79,27.79,0,0,0-3.77,1.12,21,21,0,0,1,1.64,6,21.05,21.05,0,0,1,6-1.55A27.22,27.22,0,0,0,156.1,18.07" fill="#fff"/></clipPath><clipPath id="clip-path-4"><path d="M102.84,97a27.46,27.46,0,0,0,53.39,9.06,27,27,0,0,1-6-1.57A21.25,21.25,0,1,1,113.52,84,27.58,27.58,0,0,1,109,79.65,27.3,27.3,0,0,0,102.84,97" fill="#fff"/></clipPath><clipPath id="clip-path-5"><path d="M118,79.72a21.89,21.89,0,0,0-4,3.68,21.89,21.89,0,0,1,4-3.68m-3.38-38a20.16,20.16,0,0,0,2.48,2.32,20.16,20.16,0,0,1-2.48-2.32M130.32,0a27.46,27.46,0,0,0-21.24,44.89,26.69,26.69,0,0,1,3.5-3.47,26.69,26.69,0,0,0-3.5,3.47,2.2,2.2,0,0,0,.2.23c-.07-.08-.14-.15-.2-.23a27.41,27.41,0,0,0,0,34.76h0A27.58,27.58,0,0,0,113.52,84h0a26.93,26.93,0,0,0,21.18,5.4,27.7,27.7,0,0,1-1.7-6,21.53,21.53,0,0,1-2.68.19,21.12,21.12,0,0,1-12.26-3.92h0a21.54,21.54,0,0,1-4.54-4.35h0a21.13,21.13,0,0,1,.06-26.07A30.53,30.53,0,0,1,111,47a30.53,30.53,0,0,0,2.57,2.24,21.34,21.34,0,0,1,4.56-4.34h0A21.17,21.17,0,0,1,130.32,41a22.58,22.58,0,0,1,2.61.17,27.2,27.2,0,0,1,1.6-6,27.91,27.91,0,0,0-4.21-.36,27.35,27.35,0,0,0-16.74,5.74h0a21.25,21.25,0,1,1,36.5-20.9,27.44,27.44,0,0,1,6-1.59A27.52,27.52,0,0,0,130.32,0Z" fill="#fff"/></clipPath></defs><title>Brandon-white</title><path d="M147.06,49.23a21.25,21.25,0,0,1,2.58,4.24,27.32,27.32,0,0,1,6.06-1.69,27.51,27.51,0,0,0-4.14-6.89,28,28,0,0,1-4.5,4.34" fill="#fff"/><path d="M142.49,44.89a21.34,21.34,0,0,0,4.57-4.33,27.47,27.47,0,0,0-6.51-3.74,20.84,20.84,0,0,0-1.6,6.06,20.86,20.86,0,0,1,3.54,2" fill="#fff"/><path d="M147.12,75.3a27.58,27.58,0,0,1,4.49,4.35,27.46,27.46,0,0,0,4.26-7.3,27,27,0,0,1-6-1.64,21.21,21.21,0,0,1-2.72,4.59" fill="#fff"/><path d="M142.58,79.65a22,22,0,0,1-3.56,2,21.08,21.08,0,0,0,1.73,6A27.36,27.36,0,0,0,147.12,84a21.54,21.54,0,0,0-4.54-4.35" fill="#fff"/><path d="M151.45,64.65a21.18,21.18,0,0,1-1.61,6.06,27.12,27.12,0,0,0,6,1.64,26.91,26.91,0,0,0,1.6-6,21,21,0,0,1-6-1.67" fill="#fff"/><path d="M151.38,59.49a21.35,21.35,0,0,1,6-1.69,27.7,27.7,0,0,0-1.7-6,27.32,27.32,0,0,0-6.06,1.69,21.1,21.1,0,0,1,1.74,6" fill="#fff"/><path d="M147.12,75.3a21.78,21.78,0,0,1-4.54,4.35A21.78,21.78,0,0,1,147.12,84a27.58,27.58,0,0,0,4.49-4.35,27.58,27.58,0,0,0-4.49-4.35" fill="#fff"/><path d="M185.6,35.12a27.49,27.49,0,0,1,1.62,6,20,20,0,0,1,2.2-.11,21.27,21.27,0,1,1-2.28,42.4,27,27,0,0,1-1.71,6,27.47,27.47,0,1,0,4-54.64,26.72,26.72,0,0,0-3.82.3" fill="#fff"/><g clip-path="url(#clip-path)"><rect x="185.43" y="34.82" width="31.46" height="54.96" fill="#fff"/></g><path d="M168.7,66.82a22.11,22.11,0,0,0,1.16,3.81,22.11,22.11,0,0,1-1.16-3.81M181.18,42.7a21,21,0,0,1-3.8,14.86h0a21.66,21.66,0,0,1-3.74,4,21.27,21.27,0,0,0,3.73-4,27.49,27.49,0,0,0-7.21-4.21,27.15,27.15,0,0,0-6.1-1.62,25.18,25.18,0,0,0-8.36.06,27.7,27.7,0,0,1,1.7,6,19.39,19.39,0,0,1,4.95-.06,26.89,26.89,0,0,1,1-4,26.89,26.89,0,0,0-1,4,20.76,20.76,0,0,1,6,1.57A21,21,0,0,1,173,62.06a21,21,0,0,1-4.71,2.77h0a21.05,21.05,0,0,1-6,1.55h0a20.13,20.13,0,0,1-2.2.12,20.43,20.43,0,0,1-2.61-.18,26.91,26.91,0,0,1-1.6,6,24.58,24.58,0,0,0,8,.06A27.33,27.33,0,0,0,170,70.85h0a27,27,0,0,0,11.8-8.79,26.93,26.93,0,0,0,5.47-20.9,21.05,21.05,0,0,0-6,1.55" fill="#fff"/><g clip-path="url(#clip-path-2)"><rect x="155.7" y="41.15" width="31.86" height="31.56" fill="#fff"/></g><path d="M150.12,19.79c0,.05,0,.1,0,.15s0-.1,0-.15m6-1.72a27.5,27.5,0,0,0-6,1.59h0a27.6,27.6,0,0,0-15.55,15.52,28.16,28.16,0,0,1,3.06.65,28.16,28.16,0,0,0-3.06-.65,26.66,26.66,0,0,0-1.6,6c.19,0,.37.09.56.12-.19,0-.37-.09-.57-.12a28,28,0,0,0-.32,4,28.41,28.41,0,0,0,.22,3.35h0a27.15,27.15,0,0,0,1.47,6h0a27.24,27.24,0,0,0,4.11,7.41,27.4,27.4,0,0,0-4.24,7.77,27.5,27.5,0,0,1,5.68,1.44,27.5,27.5,0,0,0-5.68-1.44,27.68,27.68,0,0,0-1.39,6.06h0a27,27,0,0,0-.17,3,27.78,27.78,0,0,0,.4,4.5h0a27.15,27.15,0,0,0,1.7,6h0a27.62,27.62,0,0,0,15.5,15.09h0a27.41,27.41,0,0,0,6,1.57h0a27.15,27.15,0,0,0,3.85.3,27.52,27.52,0,0,0,25.35-16.9c-.67-.1-1.31-.26-2-.4.65.14,1.3.3,2,.4a27,27,0,0,0,1.71-6,21.17,21.17,0,0,1-2.11-.38c.7.14,1.39.3,2.11.38a26.82,26.82,0,0,0-5.38-21.39,27.43,27.43,0,0,1-4.38,4.5,20.72,20.72,0,0,1,3.72,15.33h0a21.06,21.06,0,0,1-1.76,6c.67.27,1.37.47,2.06.68-.69-.21-1.39-.41-2.07-.68a21.25,21.25,0,0,1-19.25,12.31,19.64,19.64,0,0,1-2.45-.16h0a20.85,20.85,0,0,1-6.11-1.66h0a21.33,21.33,0,0,1-10.76-10.62,20.78,20.78,0,0,1-1.74-6h0a20.21,20.21,0,0,1-.21-2.81c0-.45,0-.89.07-1.34h0a21.09,21.09,0,0,1,1.32-6.16h0a21.14,21.14,0,0,1,2.58-4.83,21.53,21.53,0,0,1,4.34-4.5,21.29,21.29,0,0,1-4.34-4.5h0a21.32,21.32,0,0,1-2.46-4.5h0a21.18,21.18,0,0,1-1.42-6.12h0c0-.56-.08-1.13-.08-1.7a20.31,20.31,0,0,1,.14-2.35h0a20.93,20.93,0,0,1,1.6-6.06,25.92,25.92,0,0,0-2.74-.92,25.92,25.92,0,0,1,2.74.92,21.42,21.42,0,0,1,10.95-11h0a21,21,0,0,1,6.07-1.67,23.16,23.16,0,0,1,2.51-.16,21.3,21.3,0,0,1,19.46,12.73,27.79,27.79,0,0,1,3.77-1.12,27.79,27.79,0,0,0-3.77,1.12,21,21,0,0,1,1.64,6,21.05,21.05,0,0,1,6-1.55A27.22,27.22,0,0,0,156.1,18.07" fill="#fff"/><g clip-path="url(#clip-path-3)"><rect x="132.6" y="17.75" width="54.96" height="88.61" fill="#fff"/></g><path d="M142.49,44.89a21.59,21.59,0,0,1,4.57,4.33,27.51,27.51,0,0,0,4.5-4.33,27.93,27.93,0,0,0-4.5-4.33,21.34,21.34,0,0,1-4.57,4.33" fill="#fff"/><path d="M102.84,97a27.46,27.46,0,0,0,53.39,9.06,27,27,0,0,1-6-1.57A21.25,21.25,0,1,1,113.52,84,27.58,27.58,0,0,1,109,79.65,27.3,27.3,0,0,0,102.84,97" fill="#fff"/><g clip-path="url(#clip-path-4)"><rect x="102.84" y="79.65" width="53.39" height="44.83" fill="#fff"/></g><path d="M118,79.72a21.89,21.89,0,0,0-4,3.68,21.89,21.89,0,0,1,4-3.68m-3.38-38a20.16,20.16,0,0,0,2.48,2.32,20.16,20.16,0,0,1-2.48-2.32M130.32,0a27.46,27.46,0,0,0-21.24,44.89,26.69,26.69,0,0,1,3.5-3.47,26.69,26.69,0,0,0-3.5,3.47,2.2,2.2,0,0,0,.2.23c-.07-.08-.14-.15-.2-.23a27.41,27.41,0,0,0,0,34.76h0A27.58,27.58,0,0,0,113.52,84h0a26.93,26.93,0,0,0,21.18,5.4,27.7,27.7,0,0,1-1.7-6,21.53,21.53,0,0,1-2.68.19,21.12,21.12,0,0,1-12.26-3.92h0a21.54,21.54,0,0,1-4.54-4.35h0a21.13,21.13,0,0,1,.06-26.07A30.53,30.53,0,0,1,111,47a30.53,30.53,0,0,0,2.57,2.24,21.34,21.34,0,0,1,4.56-4.34h0A21.17,21.17,0,0,1,130.32,41a22.58,22.58,0,0,1,2.61.17,27.2,27.2,0,0,1,1.6-6,27.91,27.91,0,0,0-4.21-.36,27.35,27.35,0,0,0-16.74,5.74h0a21.25,21.25,0,1,1,36.5-20.9,27.44,27.44,0,0,1,6-1.59A27.52,27.52,0,0,0,130.32,0Z" fill="#fff"/><g clip-path="url(#clip-path-5)"><rect x="102.84" width="53.27" height="89.78" fill="#fff"/></g><text transform="translate(0 194.24)" font-size="40.85" fill="#fff" font-family="Delicia-Melted, Delicia"><tspan letter-spacing="0.46em">B</tspan><tspan x="43.99" y="0" letter-spacing="0.46em">RA</tspan><tspan x="140.15" y="0" letter-spacing="0.46em">NDO</tspan><tspan x="287.74" y="0">N</tspan></text></svg>