<?xml version="1.0" encoding="utf-8"?>
<!-- Generator: Adobe Illustrator 22.0.1, SVG Export Plug-In . SVG Version: 6.00 Build 0)  -->
<svg version="1.1" id="Layer_1" xmlns="http://www.w3.org/2000/svg" xmlns:xlink="http://www.w3.org/1999/xlink" x="0px" y="0px"
	 viewBox="0 0 95 35" style="enable-background:new 0 0 95 35;" xml:space="preserve">
<style type="text/css">
	.st0{fill:#FFFFFF;}
	.st1{fill-rule:evenodd;clip-rule:evenodd;fill:#4FC8F1;}
	.st2{fill-rule:evenodd;clip-rule:evenodd;fill:#7BCAB6;}
	.st3{fill-rule:evenodd;clip-rule:evenodd;fill:#32B88F;}
</style>
<g>
	<g>
		<rect x="39.6" y="7.3" class="st0" width="1.5" height="14.9"/>
		<path class="st0" d="M52.7,12.5c-1.2-1.2-2.5-1.7-4.2-1.6c-1.6,0.1-3,0.7-4.1,2V7.2H43v9.3v0.1c0,1.6,0.5,3,1.7,4.1
			c1.2,1.2,2.6,1.7,4.2,1.7c1.5-0.1,2.9-0.6,4-1.8c1.1-1.1,1.6-2.5,1.6-4C54.5,15,53.9,13.7,52.7,12.5z M51.8,19.6
			C51,20.5,50,20.9,48.9,21c-1.2,0.1-2.3-0.4-3.1-1.3c-0.9-0.9-1.3-2-1.3-3.2c0-1.2,0.5-2.2,1.3-3c0.8-0.8,1.8-1.2,2.9-1.2
			c1.2,0,2.2,0.4,3,1.3c0.8,0.8,1.3,1.8,1.3,3C53,17.7,52.6,18.7,51.8,19.6z"/>
		<path class="st0" d="M60.8,21.2c-1.7,0-2.6-0.8-2.6-2.5v-6.2h2.6v-1.4h-2.6V7.3h-1.5V19c0,2.3,1.4,3.4,4.1,3.4V21.2z"/>
		<rect x="62.4" y="7.2" class="st0" width="1.5" height="2.6"/>
		<rect x="62.4" y="11.1" class="st0" width="1.5" height="11"/>
		<polygon class="st0" points="74.4,11.1 72.5,11.1 67.4,17.8 67.4,7.2 65.8,7.2 65.8,22.2 67.4,22.2 67.4,20.1 69.2,17.8 
			72.8,22.2 74.8,22.2 70.2,16.7 		"/>
		<path class="st0" d="M80.9,10.9c-1.6-0.1-3,0.5-4.2,1.6c-1.2,1.1-1.7,2.5-1.7,4.1c0,1.6,0.5,2.9,1.6,4c1.1,1.1,2.4,1.7,3.9,1.8
			c1.8,0.1,3.3-0.6,4.5-2v1.7h1.5v-5.5v-0.1c0.1-1.5-0.5-2.9-1.6-4C83.8,11.5,82.4,10.9,80.9,10.9z M83.7,19.7
			c-0.9,0.9-1.9,1.3-3.1,1.3c-1.1-0.1-2.1-0.5-2.9-1.4c-0.8-0.9-1.2-1.9-1.2-3.1c0-1.2,0.4-2.2,1.3-3c0.8-0.8,1.8-1.2,3-1.2
			c1.1,0,2.1,0.4,2.9,1.2c0.8,0.8,1.2,1.8,1.3,3C85,17.7,84.5,18.8,83.7,19.7z"/>
		<path class="st0" d="M90.9,11.3c-0.6,0.3-1.1,0.8-1.4,1.4v-1.6h-1.4v11h1.6v-6.6c0-0.7,0.1-1.3,0.4-1.7c0.2-0.3,0.5-0.6,0.9-0.9
			c0.4-0.3,1-0.5,1.7-0.6v-1.5C92.1,10.9,91.5,11,90.9,11.3z"/>
		<polygon class="st0" points="39.7,25.1 40.8,25.1 40.8,29.6 41.3,29.6 41.3,25.1 42.4,25.1 42.4,24.7 39.7,24.7 		"/>
		<path class="st0" d="M45.7,25.8c-0.6,0-1,0.2-1.4,0.5c-0.4,0.4-0.6,0.9-0.6,1.4c0,0.5,0.2,1,0.6,1.3c0.4,0.4,0.8,0.5,1.3,0.5
			c0.4,0,0.8-0.1,1.1-0.4c0.3-0.2,0.6-0.5,0.7-0.9h-0.5c-0.3,0.5-0.7,0.8-1.2,0.8c-0.4,0-0.7-0.1-1-0.4c-0.3-0.2-0.4-0.5-0.5-0.9
			h3.3v-0.3c0-0.5-0.2-0.9-0.5-1.2C46.6,26.1,46.2,25.9,45.7,25.8z M44.2,27.5c0.1-0.3,0.2-0.6,0.5-0.8c0.3-0.2,0.6-0.3,0.9-0.3
			c0.4,0,0.7,0.1,0.9,0.3c0.3,0.2,0.4,0.5,0.5,0.8H44.2z"/>
		<path class="st0" d="M50.8,29.2c-0.4,0-0.8-0.1-1-0.4c-0.3-0.3-0.4-0.6-0.4-1c0-0.4,0.2-0.7,0.5-1c0.3-0.3,0.6-0.4,1-0.4
			c0.6,0,1,0.3,1.3,0.7h0.6l-0.1-0.2c-0.1-0.3-0.4-0.5-0.7-0.7c-0.3-0.2-0.7-0.3-1.1-0.3c-0.5,0-1,0.2-1.4,0.6
			c-0.4,0.4-0.6,0.8-0.6,1.3c0,0.5,0.2,1,0.6,1.3c0.4,0.4,0.8,0.5,1.4,0.6c0.8,0,1.4-0.3,1.8-1l0.1-0.1H52
			C51.8,28.9,51.3,29.2,50.8,29.2z"/>
		<path class="st0" d="M55.3,25.9c-0.4,0-0.8,0.2-1.1,0.6v-1.8h-0.5v4.9h0.5v-2.2c0-0.3,0.1-0.6,0.3-0.8c0.2-0.2,0.5-0.3,0.8-0.3
			c0.3,0,0.6,0.1,0.8,0.3c0.2,0.2,0.3,0.5,0.3,0.8v2.1H57v-2.1c0-0.5-0.2-0.9-0.5-1.2C56.1,26,55.8,25.9,55.3,25.9z"/>
		<path class="st0" d="M59.9,25.8c-0.5,0-0.9,0.2-1.2,0.5c-0.3,0.3-0.5,0.7-0.5,1.2v2.1h0.5v-2.1c0-0.3,0.1-0.6,0.3-0.8
			c0.2-0.2,0.5-0.3,0.8-0.3c0.3,0,0.6,0.1,0.8,0.3c0.2,0.2,0.3,0.5,0.3,0.8v2.1h0.5v-2.1c0-0.5-0.2-0.9-0.5-1.2
			C60.8,26,60.4,25.8,59.9,25.8z"/>
		<path class="st0" d="M64.9,25.8c-0.5,0-1,0.2-1.4,0.5c-0.4,0.4-0.6,0.8-0.6,1.4c0,0.5,0.2,0.9,0.5,1.3c0.4,0.4,0.8,0.6,1.3,0.6
			c0.5,0,1-0.2,1.4-0.5c0.4-0.4,0.6-0.8,0.6-1.4c0-0.5-0.2-0.9-0.5-1.3C65.9,26,65.4,25.9,64.9,25.8z M65.8,28.7
			c-0.3,0.3-0.6,0.4-1,0.4c-0.4,0-0.7-0.2-1-0.4c-0.3-0.3-0.4-0.6-0.4-1c0-0.4,0.1-0.7,0.4-1c0.3-0.3,0.6-0.4,1-0.4
			c0.4,0,0.7,0.1,1,0.4c0.3,0.3,0.4,0.6,0.4,1C66.3,28.1,66.1,28.4,65.8,28.7z"/>
		<rect x="68.1" y="24.6" class="st0" width="0.5" height="4.9"/>
		<path class="st0" d="M72,25.8c-0.5,0-1,0.2-1.4,0.5c-0.4,0.4-0.6,0.8-0.6,1.4c0,0.5,0.2,0.9,0.5,1.3c0.4,0.4,0.8,0.6,1.3,0.6
			c0.5,0,1-0.2,1.4-0.5c0.4-0.4,0.6-0.8,0.6-1.4c0-0.5-0.2-0.9-0.5-1.3C72.9,26,72.5,25.9,72,25.8z M72.9,28.7
			c-0.3,0.3-0.6,0.4-1,0.4c-0.4,0-0.7-0.2-1-0.4c-0.3-0.3-0.4-0.6-0.4-1c0-0.4,0.1-0.7,0.4-1c0.3-0.3,0.6-0.4,1-0.4
			c0.4,0,0.7,0.1,1,0.4c0.3,0.3,0.4,0.6,0.4,1C73.3,28.1,73.2,28.4,72.9,28.7z"/>
		<path class="st0" d="M77,25.8c-0.5,0-1,0.2-1.3,0.6c-0.4,0.4-0.5,0.8-0.5,1.3c0,0.5,0.2,1,0.6,1.4c0.4,0.4,0.8,0.6,1.4,0.5
			c0.5,0,1-0.2,1.4-0.6v0.3c0,0.3-0.1,0.6-0.4,0.9c-0.3,0.2-0.6,0.4-0.9,0.4c-0.3,0-0.6-0.1-0.8-0.3c-0.3-0.2-0.4-0.4-0.5-0.6h-0.5
			c0.1,0.4,0.3,0.7,0.6,0.9c0.3,0.2,0.7,0.4,1.1,0.4c0.5,0,0.9-0.1,1.3-0.4c0.4-0.3,0.6-0.7,0.6-1.1v-1.7c0-0.5-0.2-1-0.6-1.3
			C78,26,77.6,25.8,77,25.8z M78.1,28.7c-0.3,0.3-0.6,0.4-1,0.4c-0.4,0-0.7-0.1-1-0.4c-0.3-0.3-0.4-0.6-0.4-1c0-0.4,0.1-0.7,0.4-1
			c0.3-0.3,0.6-0.4,1-0.5c0.4,0,0.8,0.1,1,0.4c0.3,0.3,0.4,0.6,0.4,1C78.5,28.1,78.3,28.5,78.1,28.7z"/>
		<rect x="80.4" y="25.9" class="st0" width="0.5" height="3.6"/>
		<rect x="80.4" y="24.6" class="st0" width="0.5" height="0.8"/>
		<path class="st0" d="M84.3,25.8c-0.5,0-1,0.2-1.4,0.5c-0.4,0.4-0.6,0.9-0.6,1.4c0,0.5,0.2,1,0.6,1.3c0.4,0.4,0.8,0.5,1.3,0.5
			c0.4,0,0.8-0.1,1.1-0.4c0.3-0.2,0.6-0.5,0.7-0.9h-0.5c-0.3,0.5-0.7,0.8-1.2,0.8c-0.4,0-0.7-0.1-1-0.4c-0.3-0.2-0.4-0.5-0.5-0.9
			h3.3v-0.3c0-0.5-0.2-0.9-0.5-1.2C85.2,26.1,84.8,25.9,84.3,25.8z M82.8,27.5c0.1-0.3,0.2-0.6,0.5-0.8c0.3-0.2,0.6-0.3,0.9-0.3
			c0.4,0,0.7,0.1,0.9,0.3c0.3,0.2,0.4,0.5,0.5,0.8H82.8z"/>
		<path class="st0" d="M88.9,27.5l-0.4-0.1c-0.3-0.1-0.5-0.3-0.5-0.6c0-0.3,0.2-0.5,0.5-0.5c0.3,0,0.5,0.2,0.5,0.4v0.1h0.5l0-0.1
			c0-0.3-0.1-0.5-0.4-0.6c-0.2-0.2-0.4-0.3-0.7-0.2c-0.3,0-0.5,0.1-0.7,0.3c-0.2,0.2-0.3,0.4-0.3,0.7c0,0.5,0.3,0.8,0.7,0.9l0.4,0.1
			c0.4,0.1,0.5,0.3,0.5,0.6c0,0.2-0.1,0.3-0.2,0.4c-0.1,0.1-0.3,0.2-0.5,0.2c-0.2,0-0.3-0.1-0.4-0.2c-0.1-0.1-0.2-0.3-0.2-0.4v-0.1
			h-0.5c0,0.3,0.1,0.6,0.3,0.8c0.2,0.2,0.5,0.4,0.8,0.4c0.3,0,0.6-0.1,0.9-0.3c0.3-0.2,0.4-0.5,0.3-0.9C89.7,28,89.4,27.7,88.9,27.5
			z"/>
	</g>
	<g>
		<path class="st1" d="M17.9,31.5c0.7-2.6,0.8-5.6,0.8-5.6c0.1-3.5-1.5-6-2.6-7.5c-0.3-0.5-0.6-0.8-0.6-0.8C14,15,13,10.9,14.4,6.2
			c0.5-1.5,1-2.7,1.5-3.8c-1.7,0.3-3.3,1.1-4.6,2.4L5,11.1c-3.5,3.5-3.5,9.1,0,12.5l6.3,6.3c1.7,1.7,4,2.6,6.2,2.6
			C17.6,32.2,17.8,31.9,17.9,31.5z"/>
		<path class="st2" d="M23.9,4.9c-0.7-0.7-1.5-1.2-2.3-1.6c-0.4,0.6-0.9,1.2-1.3,1.8c-2.6,4.4-1.9,8.6-0.2,11.4c0,0,0.3,0.4,0.6,0.9
			c1.2,1.7,3,4.5,2.3,7.9c0,0-0.5,3-1.9,5.4c-0.3,0.5-0.7,1-1.1,1.5c1.4-0.4,2.7-1.1,3.8-2.2l6.3-6.3c3.5-3.5,3.5-9.1,0-12.5
			L23.9,4.9z"/>
		<path class="st3" d="M20.2,32.2c0.4-0.5,0.8-1,1.1-1.5c1.4-2.4,1.9-5.4,1.9-5.4c0.7-3.4-1.1-6.2-2.3-7.9c-0.3-0.5-0.6-0.9-0.6-0.9
			c-1.7-2.8-2.4-7,0.2-11.4c0.4-0.6,0.8-1.3,1.3-1.8c-0.3-0.1-0.6-0.3-0.9-0.4c-0.4,0.5-0.8,0.8-0.8,0.8s-5.7,5.6-1.5,12.6
			c4.2,5.9,1.6,12.5-0.5,16.3C18.7,32.5,19.4,32.4,20.2,32.2z"/>
	</g>
</g>
</svg>
